<svg width="102" height="29" viewBox="0 0 102 29" fill="none" xmlns="http://www.w3.org/2000/svg">
<g clip-path="url(#clip0_6_34)">
<rect width="102" height="29" fill="#27CB0D"/>
<path d="M0 0H66V19H0V0Z" fill="#27CB0D"/>
<path d="M9.66091 7.00899C9.65602 7.01259 9.59894 7.02518 9.53207 7.03597C9.03955 7.11691 8.56823 7.35791 8.19802 7.71763C8.0121 7.89928 7.86696 8.10611 7.75769 8.34712L7.66473 8.55216L7.53426 8.61511C7.34671 8.70324 6.79058 8.94784 6.63239 9.01259C6.55737 9.04137 6.40733 9.08813 6.29806 9.11331C6.01102 9.18345 5.85935 9.27158 5.62125 9.50899C5.50382 9.6259 5.28202 9.93345 5.19722 10.0989C5.03087 10.4191 4.9689 10.7986 5.01456 11.2248C5.02435 11.3094 5.04229 11.4892 5.05533 11.6205C5.07001 11.7536 5.08469 11.8669 5.08795 11.8705C5.09121 11.8759 5.17765 11.8669 5.27713 11.8525L5.46142 11.8255L5.61798 12.0036C5.75824 12.1601 5.78107 12.1799 5.83326 12.1799C5.87077 12.1799 5.90175 12.1673 5.92459 12.1385C5.95884 12.0989 6.09094 11.8058 6.09094 11.768C6.09094 11.7302 6.19531 11.7014 6.29806 11.7104C6.30784 11.7122 6.34698 11.7662 6.38612 11.8327C6.42363 11.9011 6.47908 11.991 6.51007 12.0342C6.5753 12.1295 6.5802 12.1673 6.52475 12.1511C6.46767 12.1349 6.42363 12.1996 6.39265 12.3435C6.3796 12.4101 6.36818 12.482 6.36818 12.5C6.36818 12.5522 6.33883 12.5701 6.19042 12.6151L6.05506 12.6547L5.98004 12.5558C5.86588 12.4065 5.72399 12.2608 5.66854 12.2338C5.56416 12.187 5.50382 12.2968 5.43206 12.6565L5.39782 12.8363L5.31953 12.8633L5.24125 12.8921L5.34237 13.0612C5.59189 13.4838 5.84957 13.786 6.04038 13.8831C6.14475 13.937 6.05832 13.9424 7.12654 13.8183C9.15534 13.5809 9.75877 13.4622 10.6933 13.1151C10.8792 13.045 11.0406 12.9892 11.052 12.9892C11.0798 12.9892 11.2918 13.4388 11.5429 14.036C11.6555 14.3004 11.7762 14.5647 11.8137 14.6241L11.8789 14.732L11.8659 14.8903C11.8495 15.0881 11.8707 15.3058 11.9148 15.4047C11.9343 15.4496 12.0534 15.5953 12.21 15.7644L12.4725 16.0486L12.3845 16.1385C12.3143 16.2086 12.2736 16.2356 12.1822 16.2644C12.1203 16.2842 12.0452 16.3094 12.0159 16.3183C11.98 16.3309 11.8512 16.4676 11.5837 16.777C11.375 17.0198 11.1988 17.2356 11.1939 17.2572C11.1874 17.2788 11.1646 17.3417 11.1417 17.3957C11.1059 17.4838 11.0651 17.6493 11.0651 17.7068C11.0651 17.7176 11.1173 17.6709 11.1793 17.6025C11.2853 17.4874 11.2967 17.4784 11.3277 17.5C11.357 17.5216 11.3652 17.5198 11.3864 17.4856C11.4402 17.4029 11.4842 17.3543 11.5005 17.3651C11.5103 17.3723 11.5299 17.4245 11.5446 17.4838C11.5674 17.5737 11.569 17.6151 11.5544 17.741C11.5462 17.8237 11.5234 17.946 11.5054 18.0144C11.4875 18.0827 11.4777 18.1439 11.481 18.1493C11.494 18.1637 11.631 18.0072 11.693 17.9083C11.724 17.8579 11.7647 17.7698 11.7843 17.7104C11.8218 17.5917 11.8349 17.5647 11.8919 17.4622C11.9229 17.4083 11.936 17.3975 11.9539 17.4137C11.9719 17.4299 11.9702 17.4532 11.9441 17.5576C11.9278 17.6259 11.8952 17.7284 11.8724 17.7842C11.8495 17.8399 11.8349 17.8903 11.8398 17.8957C11.861 17.9209 12.086 17.7014 12.1431 17.5989C12.161 17.5665 12.1871 17.5396 12.1985 17.5396C12.2116 17.5396 12.2246 17.5324 12.2295 17.5252C12.2328 17.518 12.2703 17.3489 12.3111 17.1529C12.3519 16.955 12.3926 16.7752 12.4024 16.7518C12.4171 16.714 12.4236 16.7122 12.6748 16.7122C12.8264 16.7104 12.9863 16.6996 13.0629 16.6853C13.1347 16.6709 13.2015 16.6583 13.2113 16.6583C13.2358 16.6583 13.5114 16.8561 13.5114 16.8741C13.5114 16.8831 13.4869 16.8993 13.456 16.9101C13.3858 16.9353 12.6291 17.804 12.6112 17.8777C12.6063 17.9047 12.5818 17.9748 12.5606 18.0342C12.5378 18.0935 12.5149 18.1817 12.5084 18.232L12.497 18.3219L12.6095 18.2014C12.7139 18.0863 12.7612 18.054 12.7612 18.0971C12.7612 18.1385 12.8052 18.1079 12.8558 18.0342C12.8851 17.9892 12.9161 17.9532 12.9243 17.9532C12.9308 17.9532 12.9504 17.9946 12.9667 18.0468C13.0009 18.1637 12.9912 18.4065 12.9406 18.5989C12.9227 18.6709 12.9112 18.7356 12.9178 18.7428C12.9227 18.7482 12.97 18.7032 13.0238 18.6403C13.1184 18.5306 13.1934 18.3921 13.2342 18.25C13.2651 18.1475 13.3467 18.0072 13.376 18.0072C13.4135 18.0072 13.3972 18.1061 13.3271 18.3129C13.2945 18.4065 13.2717 18.4856 13.2749 18.491C13.2978 18.5162 13.5929 18.214 13.5929 18.1655C13.5929 18.1565 13.6093 18.1439 13.6305 18.1349C13.6614 18.1205 13.6745 18.0755 13.7462 17.7356C13.7903 17.5234 13.8343 17.3399 13.8457 17.3255C13.8637 17.3058 13.9061 17.3058 14.0838 17.3201C14.2877 17.3363 14.3138 17.3435 14.4736 17.4173C14.5682 17.4604 14.653 17.5018 14.6628 17.509C14.6742 17.5162 14.6873 17.5845 14.6938 17.6601C14.7199 17.9766 14.8112 18.2266 14.9939 18.4928L15.1048 18.6547L15.1162 18.8561C15.1504 19.4928 15.2091 19.8489 15.3641 20.3597C15.4032 20.491 15.4358 20.6061 15.4358 20.6169C15.4358 20.6259 15.4016 20.6511 15.3592 20.6709C15.3151 20.6906 15.2385 20.7284 15.1863 20.7536L15.0933 20.8022L14.9091 20.7662C14.6563 20.7194 14.2013 20.7194 13.9925 20.7662C13.4853 20.8831 13.0792 21.1637 12.9096 21.5144C12.8558 21.6259 12.8101 21.795 12.8101 21.8849V21.9406L13.5408 21.9532C13.9566 21.9604 14.2763 21.973 14.2861 21.9838C14.2942 21.9928 15.4277 22 17.2428 22H20.1866L20.1768 21.8759C20.1376 21.3543 19.6924 20.8651 19.0596 20.6493C18.8297 20.5701 18.8215 20.5647 18.8085 20.4712C18.7922 20.3471 18.7938 20.1331 18.8134 20.0036C18.8509 19.7428 18.9406 19.5414 19.1053 19.3507C19.2374 19.196 19.3238 19.1331 19.5309 19.0414C19.9909 18.8381 20.379 18.5216 20.635 18.1421C20.8992 17.7518 21.0265 17.2788 20.9808 16.8543C20.971 16.7554 20.9661 16.6691 20.9694 16.6637C20.9889 16.6439 21.594 16.3723 21.8859 16.2536C22.6051 15.9622 23.0618 15.8489 23.6717 15.8112C24.1202 15.7824 24.8916 15.8004 25.6777 15.8579L25.8163 15.8687L25.7348 15.786C25.5864 15.6331 25.27 15.4191 24.8867 15.2104C24.1594 14.8129 23.3602 14.5108 22.7095 14.3849C21.8729 14.223 20.7003 14.1906 19.5456 14.295L19.2439 14.3219L18.7873 14.0989C17.4679 13.455 16.5693 13.0953 15.9593 12.9622C15.4652 12.8579 14.6579 12.7716 13.5717 12.7104L13.3646 12.6978L13.2863 12.7536C13.1918 12.8201 13.1787 12.8219 13.1559 12.7662C13.1314 12.705 13.2423 12.1763 13.3369 11.9101C13.6044 11.1547 13.712 10.5036 13.6337 10.1331C13.5554 9.76978 13.2407 9.28417 12.6878 8.67986C12.4155 8.38129 12.3845 8.34173 12.3143 8.19245C12.2442 8.04317 12.2246 8.01799 12.0469 7.84892C11.7125 7.52878 11.5136 7.3795 11.3162 7.30575C11.1907 7.25719 10.9151 7.20504 10.6509 7.18165C10.5041 7.16727 10.4062 7.14748 10.3296 7.11691C10.1763 7.05755 9.91044 7 9.77834 7C9.71799 7 9.66418 7.0036 9.66091 7.00899ZM8.6563 11.5432C8.68891 11.5504 8.71664 11.5647 8.71664 11.5773C8.71664 11.5953 8.38068 11.7842 8.34806 11.7842C8.34154 11.7842 8.30729 11.7536 8.26978 11.7158C8.2339 11.6781 8.18497 11.6349 8.16377 11.6187C8.1018 11.5701 8.12953 11.536 8.23879 11.527C8.34643 11.518 8.56334 11.527 8.6563 11.5432ZM7.14285 11.5863C7.14774 11.5953 7.14122 11.6655 7.12654 11.741C7.11186 11.8183 7.09392 11.9712 7.0874 12.0845C7.07924 12.196 7.06457 12.2986 7.05478 12.3129C7.045 12.3255 6.99444 12.3507 6.94062 12.3687L6.8444 12.4011L6.77753 12.3417C6.74002 12.3076 6.71067 12.2752 6.71067 12.268C6.71067 12.2608 6.73513 12.2284 6.76449 12.1942C6.82483 12.1295 6.87539 11.9982 6.92594 11.7752C6.94388 11.696 6.96671 11.6223 6.97487 11.6097C6.98302 11.5971 7.01727 11.5845 7.04989 11.5809C7.08251 11.5773 7.11512 11.5737 7.12165 11.5719C7.12817 11.5701 7.13796 11.5755 7.14285 11.5863ZM8.0382 11.8507L8.02352 11.937L7.88653 11.9964C7.76584 12.0504 7.7479 12.054 7.7267 12.0306C7.69408 11.9946 7.70876 11.9712 7.77236 11.9568C7.80335 11.9514 7.86206 11.9047 7.9224 11.8399C8.03657 11.7176 8.06103 11.7212 8.0382 11.8507ZM17.1222 19.8183C17.1466 19.946 17.207 20.1763 17.2526 20.3327C17.3652 20.705 17.3586 20.7158 17.0749 20.6169C16.9411 20.5719 16.9264 20.5629 16.9183 20.5144C16.8971 20.4101 16.9036 20.0594 16.9281 19.9299C16.9574 19.7806 17.0292 19.5899 17.0569 19.5899C17.0683 19.5899 17.0961 19.6835 17.1222 19.8183Z" fill="white"/>
<path d="M30.1467 20H28.3185L31.647 10.5455H33.7614L37.0945 20H35.2663L32.7411 12.4844H32.6673L30.1467 20ZM30.2067 16.293H35.1925V17.6687H30.2067V16.293ZM43.3256 13.1445C43.2825 12.7414 43.1009 12.4274 42.7808 12.2028C42.4638 11.9781 42.0514 11.8658 41.5436 11.8658C41.1866 11.8658 40.8804 11.9196 40.6249 12.0273C40.3695 12.1351 40.174 12.2812 40.0386 12.4659C39.9032 12.6506 39.834 12.8614 39.8309 13.0984C39.8309 13.2953 39.8755 13.4661 39.9648 13.6108C40.0571 13.7554 40.1817 13.8786 40.3387 13.9801C40.4957 14.0786 40.6695 14.1617 40.8604 14.2294C41.0512 14.2971 41.2435 14.354 41.4374 14.4002L42.3238 14.6218C42.6808 14.7049 43.0239 14.8172 43.3532 14.9588C43.6856 15.1004 43.9826 15.2789 44.2442 15.4943C44.5089 15.7098 44.7182 15.9698 44.8721 16.2745C45.026 16.5792 45.1029 16.9362 45.1029 17.3455C45.1029 17.8995 44.9613 18.3873 44.6782 18.8089C44.395 19.2275 43.9857 19.5553 43.4502 19.7923C42.9178 20.0262 42.273 20.1431 41.5159 20.1431C40.7803 20.1431 40.1417 20.0292 39.6001 19.8015C39.0615 19.5737 38.6398 19.2414 38.3351 18.8043C38.0335 18.3673 37.8704 17.8349 37.8458 17.207H39.5308C39.5554 17.5363 39.657 17.8103 39.8355 18.0288C40.014 18.2473 40.2464 18.4104 40.5326 18.5181C40.8219 18.6258 41.145 18.6797 41.502 18.6797C41.8744 18.6797 42.2007 18.6243 42.4807 18.5135C42.7639 18.3996 42.9855 18.2427 43.1455 18.0426C43.3055 17.8395 43.3871 17.6025 43.3902 17.3317C43.3871 17.0855 43.3148 16.8823 43.1732 16.7223C43.0316 16.5592 42.8331 16.4238 42.5777 16.3161C42.3253 16.2053 42.0299 16.1068 41.6913 16.0206L40.6157 15.7436C39.837 15.5436 39.2215 15.2404 38.7691 14.8342C38.3198 14.4248 38.0951 13.8816 38.0951 13.2045C38.0951 12.6475 38.2459 12.1597 38.5475 11.7411C38.8522 11.3226 39.2661 10.9979 39.7893 10.767C40.3125 10.5331 40.905 10.4162 41.5667 10.4162C42.2376 10.4162 42.8254 10.5331 43.3302 10.767C43.838 10.9979 44.2365 11.3195 44.5258 11.7319C44.8151 12.1412 44.9644 12.6121 44.9736 13.1445H43.3256ZM51.7679 13.1445C51.7248 12.7414 51.5433 12.4274 51.2232 12.2028C50.9062 11.9781 50.4938 11.8658 49.986 11.8658C49.629 11.8658 49.3227 11.9196 49.0673 12.0273C48.8118 12.1351 48.6164 12.2812 48.481 12.4659C48.3456 12.6506 48.2763 12.8614 48.2733 13.0984C48.2733 13.2953 48.3179 13.4661 48.4071 13.6108C48.4995 13.7554 48.6241 13.8786 48.7811 13.9801C48.938 14.0786 49.1119 14.1617 49.3027 14.2294C49.4935 14.2971 49.6859 14.354 49.8798 14.4002L50.7662 14.6218C51.1232 14.7049 51.4663 14.8172 51.7956 14.9588C52.128 15.1004 52.425 15.2789 52.6866 15.4943C52.9513 15.7098 53.1606 15.9698 53.3145 16.2745C53.4683 16.5792 53.5453 16.9362 53.5453 17.3455C53.5453 17.8995 53.4037 18.3873 53.1206 18.8089C52.8374 19.2275 52.4281 19.5553 51.8926 19.7923C51.3601 20.0262 50.7154 20.1431 49.9583 20.1431C49.2227 20.1431 48.5841 20.0292 48.0424 19.8015C47.5038 19.5737 47.0822 19.2414 46.7775 18.8043C46.4759 18.3673 46.3128 17.8349 46.2882 17.207H47.9732C47.9978 17.5363 48.0994 17.8103 48.2779 18.0288C48.4564 18.2473 48.6887 18.4104 48.975 18.5181C49.2643 18.6258 49.5874 18.6797 49.9444 18.6797C50.3168 18.6797 50.6431 18.6243 50.9231 18.5135C51.2063 18.3996 51.4279 18.2427 51.5879 18.0426C51.7479 17.8395 51.8295 17.6025 51.8326 17.3317C51.8295 17.0855 51.7572 16.8823 51.6156 16.7223C51.474 16.5592 51.2755 16.4238 51.0201 16.3161C50.7677 16.2053 50.4722 16.1068 50.1337 16.0206L49.0581 15.7436C48.2794 15.5436 47.6639 15.2404 47.2115 14.8342C46.7621 14.4248 46.5375 13.8816 46.5375 13.2045C46.5375 12.6475 46.6883 12.1597 46.9899 11.7411C47.2946 11.3226 47.7085 10.9979 48.2317 10.767C48.7549 10.5331 49.3474 10.4162 50.0091 10.4162C50.68 10.4162 51.2678 10.5331 51.7725 10.767C52.2804 10.9979 52.6789 11.3195 52.9682 11.7319C53.2575 12.1412 53.4068 12.6121 53.416 13.1445H51.7679ZM55.0722 20V10.5455H61.2213V11.9812H56.7849V14.5479H60.9028V15.9837H56.7849V18.5643H61.2583V20H55.0722ZM62.9687 10.5455H65.0645L67.8714 17.3963H67.9822L70.789 10.5455H72.8849V20H71.2414V13.5046H71.1537L68.5407 19.9723H67.3128L64.6998 13.4908H64.6121V20H62.9687V10.5455ZM74.7499 20V10.5455H78.3692C79.0525 10.5455 79.6203 10.6532 80.0727 10.8686C80.5282 11.081 80.8683 11.3718 81.093 11.7411C81.3207 12.1104 81.4346 12.529 81.4346 12.9968C81.4346 13.3815 81.3607 13.7108 81.213 13.9847C81.0653 14.2556 80.8667 14.4756 80.6175 14.6449C80.3682 14.8142 80.0896 14.9357 79.7819 15.0096V15.1019C80.1173 15.1204 80.439 15.2235 80.7467 15.4112C81.0576 15.5959 81.3115 15.8575 81.5084 16.196C81.7054 16.5346 81.8039 16.9439 81.8039 17.424C81.8039 17.9134 81.6854 18.3535 81.4484 18.7443C81.2114 19.1321 80.8544 19.4383 80.3774 19.663C79.9004 19.8877 79.3002 20 78.577 20H74.7499ZM76.4626 18.5689H78.3046C78.9263 18.5689 79.3741 18.4504 79.648 18.2134C79.925 17.9734 80.0635 17.6656 80.0635 17.2901C80.0635 17.0101 79.9942 16.7577 79.8557 16.533C79.7172 16.3053 79.5203 16.1268 79.2648 15.9975C79.0094 15.8652 78.7047 15.799 78.3508 15.799H76.4626V18.5689ZM76.4626 14.5664H78.1569C78.4523 14.5664 78.7185 14.5125 78.9555 14.4048C79.1925 14.294 79.3787 14.1386 79.5141 13.9386C79.6526 13.7354 79.7219 13.4954 79.7219 13.2184C79.7219 12.8522 79.5926 12.5505 79.3341 12.3136C79.0786 12.0766 78.6985 11.9581 78.1938 11.9581H76.4626V14.5664ZM83.2939 20V10.5455H85.0066V18.5643H89.1706V20H83.2939ZM89.0587 10.5455H90.993L93.3058 14.728H93.3982L95.711 10.5455H97.6453L94.2061 16.473V20H92.498V16.473L89.0587 10.5455Z" fill="white"/>
</g>
<defs>
<clipPath id="clip0_6_34">
<rect width="102" height="29" fill="white"/>
</clipPath>
</defs>
</svg>
