<svg width="87" height="29" viewBox="0 0 87 29" fill="none" xmlns="http://www.w3.org/2000/svg">
<g clip-path="url(#clip0_6_21)">
<rect width="87" height="29" fill="#0DCB86"/>
<path d="M0 0H66V19H0V0Z" fill="#0DCB86"/>
<path d="M27.9325 9.54545H30.0284L32.8352 16.3963H32.946L35.7528 9.54545H37.8487V19H36.2053V12.5046H36.1175L33.5046 18.9723H32.2766L29.6637 12.4908H29.576V19H27.9325V9.54545ZM40.9279 19H39.0998L42.4283 9.54545H44.5426L47.8757 19H46.0476L43.5224 11.4844H43.4485L40.9279 19ZM40.9879 15.293H45.9737V16.6687H40.9879V15.293ZM47.5629 10.9812V9.54545H55.1063V10.9812H52.184V19H50.4852V10.9812H47.5629ZM56.5605 19V9.54545H58.2732V17.5643H62.4372V19H56.5605ZM65.4933 19H63.6652L66.9937 9.54545H69.108L72.4411 19H70.613L68.0878 11.4844H68.0139L65.4933 19ZM65.5534 15.293H70.5392V16.6687H65.5534V15.293ZM73.6864 19V9.54545H77.3058C77.989 9.54545 78.5568 9.65317 79.0092 9.86861C79.4647 10.081 79.8048 10.3718 80.0295 10.7411C80.2572 11.1104 80.3711 11.529 80.3711 11.9968C80.3711 12.3815 80.2972 12.7108 80.1495 12.9847C80.0018 13.2556 79.8033 13.4756 79.554 13.6449C79.3047 13.8142 79.0262 13.9357 78.7184 14.0096V14.1019C79.0539 14.1204 79.3755 14.2235 79.6832 14.4112C79.9941 14.5959 80.248 14.8575 80.445 15.196C80.6419 15.5346 80.7404 15.9439 80.7404 16.424C80.7404 16.9134 80.6219 17.3535 80.3849 17.7443C80.148 18.1321 79.791 18.4383 79.3139 18.663C78.8369 18.8877 78.2367 19 77.5135 19H73.6864ZM75.3991 17.5689H77.2411C77.8628 17.5689 78.3106 17.4504 78.5845 17.2134C78.8615 16.9734 79 16.6656 79 16.2901C79 16.0101 78.9308 15.7577 78.7923 15.533C78.6538 15.3053 78.4568 15.1268 78.2013 14.9975C77.9459 14.8652 77.6412 14.799 77.2873 14.799H75.3991V17.5689ZM75.3991 13.5664H77.0934C77.3888 13.5664 77.6551 13.5125 77.892 13.4048C78.129 13.294 78.3152 13.1386 78.4506 12.9386C78.5891 12.7354 78.6584 12.4954 78.6584 12.2184C78.6584 11.8522 78.5291 11.5505 78.2706 11.3136C78.0152 11.0766 77.6351 10.9581 77.1303 10.9581H75.3991V13.5664Z" fill="white"/>
<path d="M16.2878 5.08021C16.1863 5.12866 16.066 5.19575 16.0247 5.23302C15.9834 5.26657 16.0322 5.24793 16.1299 5.19202C16.3855 5.05039 16.4193 5.11375 16.2314 5.37094C16.0736 5.59085 15.5813 6.51895 15.4197 6.90286C15.3183 7.14141 15.2393 7.32032 15.0778 7.67441C14.9387 7.97632 14.6531 8.63978 14.6531 8.65842C14.6531 8.6696 14.6043 8.78142 14.5442 8.91187C14.484 9.04233 14.3901 9.25479 14.3337 9.38897C14.2774 9.52315 14.1308 9.83997 14.0143 10.0972C13.8077 10.5407 13.71 10.7494 13.4432 11.3458C13.259 11.7521 12.034 14.1413 11.7334 14.6817C11.0645 15.8857 9.55767 18.1146 8.94516 18.8041C8.87001 18.8899 8.64454 19.1508 8.43787 19.3819C8.23495 19.6167 7.85918 20.0192 7.60365 20.2764C7.34813 20.5373 7.1377 20.7572 7.1377 20.7684C7.1377 20.7796 7.2354 20.8467 7.35564 20.9212C7.61493 21.0778 8.16731 21.6294 8.34768 21.9127C8.85122 22.6992 9.14056 23.2135 9.25329 23.5341C9.28335 23.6161 9.35099 23.754 9.39984 23.8397L9.49003 24L9.66664 23.8882C9.83574 23.7838 10.1627 23.6645 10.6324 23.5378C11.0081 23.4372 12.2106 23.2806 13.0937 23.2135C13.6799 23.1725 14.3863 23.0197 14.5404 22.9004C14.5705 22.8781 14.7057 22.8035 14.841 22.7364C15.1304 22.5911 15.2581 22.4979 15.416 22.3264C15.4836 22.2556 15.5738 22.1587 15.6226 22.1103C15.6677 22.0618 15.7053 22.0096 15.7053 21.9984C15.7053 21.9873 15.7692 21.8754 15.8481 21.7487C15.9308 21.622 16.0247 21.4282 16.0623 21.3163C16.0999 21.2045 16.1412 21.0927 16.1562 21.0741C16.1938 21.0256 16.2953 20.6417 16.3253 20.4218C16.3404 20.3286 16.3629 20.2354 16.3817 20.2168C16.3967 20.1944 16.4193 20.0602 16.4343 19.9186C16.4456 19.7732 16.4681 19.6018 16.4794 19.5347C16.5545 19.0874 16.5733 17.0896 16.5095 15.7254C16.4982 15.4272 16.4794 15.0768 16.4756 14.9427C16.4568 14.4916 16.4193 13.8058 16.4005 13.5822C16.3667 13.1945 16.3554 9.95925 16.3855 9.27342C16.4005 8.91187 16.4305 8.49069 16.4531 8.3416C16.4756 8.18878 16.5019 7.98005 16.5132 7.87941C16.6109 6.95877 16.6109 6.96995 16.7838 6.51149C16.8326 6.36985 16.904 6.24312 16.9378 6.22449C17.1483 6.10894 17.4677 6.62704 17.6744 7.42095C17.7796 7.81605 18.0013 8.82987 18.0201 8.9976C18.0276 9.05724 18.0426 9.13179 18.0539 9.1616C18.0652 9.19142 18.099 9.40015 18.1328 9.62752C18.1629 9.85488 18.1967 10.086 18.2079 10.1456C18.2155 10.2015 18.2305 10.3171 18.2418 10.4065C18.2493 10.4923 18.2906 10.7793 18.332 11.0476C18.3733 11.3123 18.4184 11.6254 18.4297 11.7372C18.4597 12.0652 18.5612 12.8889 18.5988 13.1535C18.6175 13.2877 18.6401 13.4965 18.6514 13.6195C18.6626 13.7425 18.6965 14.0444 18.7303 14.2904C18.7641 14.5364 18.7979 14.8197 18.8092 14.924C18.8205 15.0247 18.843 15.1924 18.8618 15.2967C18.8806 15.3974 18.9144 15.6769 18.9369 15.9118C18.9595 16.1466 18.9933 16.4224 19.0083 16.5268C19.0271 16.6274 19.0722 16.8808 19.106 17.0859C19.1737 17.4772 19.3503 18.3718 19.4442 18.7818C19.4781 18.916 19.5006 19.0725 19.5006 19.1284C19.5006 19.1843 19.5232 19.3446 19.5532 19.4825C19.5833 19.6204 19.6171 19.8254 19.6321 19.9372L19.6547 20.1422L20.0605 20.1497C20.4325 20.1571 20.5077 20.1721 20.8609 20.3025C21.4433 20.515 22.0934 20.9846 22.9389 21.8009C23.6679 22.5054 24.8967 23.5527 24.9982 23.5527C25.0207 23.5527 24.8178 23.0756 24.5735 22.5687C24.4871 22.3861 24.3669 22.0991 24.3067 21.9351C24.194 21.6332 23.9836 21.1262 23.7619 20.6193C23.7318 20.556 23.7093 20.4852 23.7093 20.4628C23.7093 20.4404 23.6867 20.3696 23.6566 20.3025C23.6266 20.2354 23.5289 20.0043 23.4425 19.7881C23.3598 19.572 23.2546 19.326 23.217 19.2402C23.1794 19.1545 23.0892 18.9309 23.0178 18.737C22.9051 18.4277 22.7548 18.0475 22.6571 17.8313C22.6383 17.7903 22.5707 17.6039 22.5068 17.4213C22.4391 17.2349 22.364 17.0262 22.3339 16.9554C22.3076 16.8846 22.1874 16.5491 22.0746 16.2099C21.9582 15.8708 21.8041 15.4272 21.7327 15.2222C21.6087 14.8718 21.4659 14.4544 20.8722 12.7249C20.5302 11.7223 20.2033 10.7904 20.0943 10.5072C20.0417 10.373 19.9515 10.1307 19.8952 9.9667C19.8388 9.8027 19.7712 9.61633 19.7449 9.5567C19.7186 9.49333 19.6171 9.23615 19.5156 8.97897C19.4179 8.72178 19.324 8.49442 19.309 8.47578C19.2939 8.45342 19.2225 8.28569 19.1436 8.10305C18.9369 7.60359 18.3395 6.46304 18.0877 6.08658C17.8134 5.6803 17.494 5.33739 17.2234 5.15848C17.0468 5.03921 16.9792 5.02057 16.7462 5.00566C16.517 4.99075 16.4456 5.00193 16.2878 5.08021Z" fill="#FFFDFD"/>
<path d="M15.8557 5.35257C15.8557 5.3712 15.7806 5.45693 15.6904 5.55011C15.5025 5.74393 15.0065 6.45957 14.6345 7.07831C14.4954 7.31313 14.2888 7.64113 14.176 7.80886C14.0671 7.97659 13.9769 8.12195 13.9769 8.13686C13.9769 8.15177 13.8266 8.37168 13.6387 8.62887C13.4546 8.88605 13.3005 9.10969 13.3005 9.12087C13.3005 9.13578 13.2629 9.18796 13.2141 9.24014C13.169 9.29233 13.0337 9.44887 12.921 9.59424C12.6166 9.97069 12.192 10.4292 11.9101 10.6789C11.6095 10.9472 11.3277 11.1783 11.2976 11.1783C11.2864 11.1783 11.1774 11.2343 11.0571 11.3051C10.8467 11.4318 10.6663 11.5026 10.2004 11.648C10.0764 11.6853 9.83211 11.8008 9.6555 11.9052L9.33609 12.0915L9.52398 12.1064C9.97867 12.1363 10.6288 11.9499 11.1398 11.6368C11.3765 11.4914 11.8688 11.0777 12.207 10.7311C12.5865 10.3434 13.1088 9.65387 13.9205 8.47605C14.0596 8.27104 14.2061 8.06977 14.2474 8.02877C14.3151 7.95422 14.3151 7.95422 14.2925 8.08468C14.2437 8.35305 13.7928 9.78806 13.6312 10.1906C13.5297 10.4403 13.5034 10.4664 13.2441 10.5857C12.9623 10.7124 12.6805 10.91 12.0943 11.3833C11.5945 11.7896 11.4855 11.8753 11.2112 12.0729C11.1135 12.1437 10.982 12.2481 10.9181 12.3003C10.7866 12.4121 10.1478 12.796 9.84715 12.9488C9.28349 13.2284 8.38539 13.4632 8.19375 13.3774C8.10356 13.3364 8.08477 13.3439 7.93071 13.5154C7.67894 13.7875 7.36705 14.1825 7.32195 14.2869C7.25432 14.4323 7.33323 14.5665 7.61882 14.805C7.75785 14.9168 7.92319 15.051 7.98331 15.1032C8.23884 15.3156 9.4338 16.2512 9.74944 16.486C9.93733 16.6277 10.0952 16.7469 10.1027 16.7544C10.1139 16.7656 9.85466 17.183 9.77951 17.2725C9.76072 17.2911 9.70811 17.3694 9.65926 17.4402C9.55404 17.5893 8.98287 18.2975 8.91899 18.3534C8.89644 18.372 8.77619 18.5174 8.65219 18.6702C8.09605 19.3523 7.05891 20.2171 6.1984 20.7091C6.01802 20.8134 5.9579 20.8619 6.0293 20.847C6.32616 20.7799 6.54786 20.6755 6.76581 20.5003C6.89733 20.396 7.07395 20.2618 7.15662 20.2096C7.39335 20.0493 8.06974 19.453 8.37788 19.1287C8.62589 18.8715 9.02796 18.4056 9.52774 17.7943C9.61417 17.6899 9.74193 17.5222 9.81333 17.4216C9.88472 17.3172 10.035 17.101 10.1478 16.937C10.8918 15.8747 12.1882 13.5675 12.7744 12.2779C12.8233 12.1735 12.951 11.9014 13.0638 11.6703C13.2516 11.2827 14.0145 9.52715 14.0145 9.48615C14.0145 9.47869 14.0633 9.36314 14.1234 9.23269C14.1836 9.10223 14.2587 8.92332 14.2888 8.83014C14.3226 8.73696 14.394 8.54314 14.4466 8.4015C14.7021 7.73431 14.8186 7.40631 14.9238 7.07831C15.0892 6.56767 15.4687 5.84084 15.728 5.55757C15.8407 5.43084 15.9196 5.32648 15.8971 5.32648C15.8745 5.32648 15.8557 5.33766 15.8557 5.35257Z" fill="#FFFDFD"/>
</g>
<defs>
<clipPath id="clip0_6_21">
<rect width="87" height="29" fill="white"/>
</clipPath>
</defs>
</svg>
