<svg width="72" height="31" viewBox="0 0 72 31" fill="none" xmlns="http://www.w3.org/2000/svg">
<rect width="72" height="31" fill="#CB0D0D"/>
<path d="M0 0H66V19H0V0Z" fill="#CB0D0D"/>
<path d="M8.36271 5.45727C8.26599 5.50417 8.14508 5.65425 8.09672 5.7762C7.96776 6.10451 7.96776 22.5951 8.09672 22.914C8.14508 23.0453 8.27405 23.1954 8.38689 23.2517C8.66093 23.4018 22.3471 23.4018 22.6212 23.2517C22.734 23.1954 22.863 23.0453 22.9113 22.914C22.9758 22.7545 23 20.4939 23 15.2034V7.71792L22.0973 6.536L21.1865 5.3447L14.8592 5.35408C10.676 5.35408 8.47555 5.3916 8.36271 5.45727ZM10.9097 7.87738C10.9097 9.7253 10.9178 9.85663 11.0709 10.0349C11.2241 10.2131 11.3369 10.2225 15.4557 10.2225C19.4938 10.2225 19.6873 10.2131 19.8646 10.0442C20.058 9.86601 20.058 9.83787 20.0822 7.88676L20.1064 5.90752H20.5336H20.9608L21.7346 6.91121L22.5164 7.92428V10.2881V12.6613H15.504H8.49167V9.35009C8.49167 7.52093 8.51585 6.00132 8.54809 5.97318C8.57227 5.93566 9.12037 5.90752 9.75712 5.90752H10.9097V7.87738ZM12.3606 7.78358V9.65964H11.8769H11.3933V7.78358V5.90752H11.8769H12.3606V7.78358ZM16.7131 7.23014C16.7131 7.95243 16.7534 8.62781 16.7937 8.73099C16.8662 8.88107 16.971 8.90922 17.4385 8.90922C18.2445 8.90922 18.2445 8.89984 18.2445 7.25828V5.90752H18.9296H19.6147L19.5986 7.75544L19.5744 9.61274L16.2133 9.64088L12.8442 9.65964V7.78358V5.90752H14.7786H16.7131V7.23014ZM22.5164 16.2258V19.2275H15.504H8.49167V16.2258V13.2242H15.504H22.5164V16.2258ZM22.5003 21.2631L22.4761 22.7452H15.504H8.53197L8.50779 21.2631L8.48361 19.7904H15.504H22.5244L22.5003 21.2631Z" fill="white"/>
<path d="M9.74926 14.9321C9.7815 15.0541 9.97495 15.7201 10.1845 16.4142L10.5714 17.6805L10.9744 17.7087L11.3774 17.7368L11.7885 16.3016C12.0142 15.5137 12.1996 14.8383 12.1996 14.7914C12.1996 14.7539 12.0222 14.7257 11.8046 14.7257H11.4177L11.2323 15.5418C11.1276 16.0015 11.0228 16.4048 10.9905 16.4423C10.9583 16.4892 10.8454 16.1234 10.7407 15.6262L10.5553 14.7257H10.12C9.70896 14.7257 9.69284 14.7351 9.74926 14.9321Z" fill="white"/>
<path d="M12.8601 16.1971L12.8843 17.6792H13.2873H13.6903L13.7145 17.0882L13.7387 16.5066H14.0933H14.456V17.1164V17.7261H14.859H15.2621V16.2252V14.7244H14.859H14.456V15.2403V15.7562H14.0933H13.7306V15.2403V14.7244H13.2873H12.8359L12.8601 16.1971Z" fill="white"/>
<path d="M16.1484 16.2343V17.7539L16.9464 17.707C17.8653 17.6507 18.1957 17.4913 18.4295 16.9753C18.6149 16.5626 18.5746 15.634 18.365 15.2494C18.1232 14.8273 17.8491 14.7241 16.9545 14.7241H16.1484V16.2343ZM17.6073 15.634C17.7363 15.8122 17.7605 16.6377 17.6396 16.7784C17.5912 16.8346 17.43 16.8909 17.2769 16.9003L16.9948 16.9284L16.9706 16.1968L16.9464 15.4745H17.2204C17.3816 15.4745 17.5428 15.5402 17.6073 15.634Z" fill="white"/>
<path d="M19.292 16.2252V17.7261H20.2592H21.2264V17.304V16.8818H20.6622H20.098V15.8031V14.7244H19.695H19.292V16.2252Z" fill="white"/>
<path d="M29.1974 10.5455L31.658 17.9872H31.755L34.2109 10.5455H36.0945L32.7614 20H30.647L27.3185 10.5455H29.1974ZM37.3398 20V10.5455H39.0525V14.5479H43.4335V10.5455H45.1508V20H43.4335V15.9837H39.0525V20H37.3398ZM50.2174 20H47.0136V10.5455H50.282C51.2207 10.5455 52.0271 10.7347 52.7011 11.1133C53.3782 11.4888 53.8983 12.0289 54.2615 12.7337C54.6246 13.4384 54.8062 14.2817 54.8062 15.2635C54.8062 16.2483 54.6231 17.0947 54.2568 17.8026C53.8937 18.5104 53.3689 19.0536 52.6826 19.4322C51.9994 19.8107 51.1776 20 50.2174 20ZM48.7263 18.5181H50.1343C50.7929 18.5181 51.3423 18.3981 51.7824 18.158C52.2225 17.9149 52.5534 17.5533 52.7749 17.0732C52.9965 16.59 53.1073 15.9867 53.1073 15.2635C53.1073 14.5402 52.9965 13.9401 52.7749 13.4631C52.5534 12.983 52.2256 12.6244 51.7916 12.3874C51.3608 12.1474 50.8253 12.0273 50.1851 12.0273H48.7263V18.5181ZM56.4335 20V10.5455H58.1462V18.5643H62.3103V20H56.4335Z" fill="white"/>
</svg>
